<?xml version="1.0" encoding="UTF-8" standalone="no"?>
<svg
   xmlns:dc="http://purl.org/dc/elements/1.1/"
   xmlns:cc="http://creativecommons.org/ns#"
   xmlns:rdf="http://www.w3.org/1999/02/22-rdf-syntax-ns#"
   xmlns:svg="http://www.w3.org/2000/svg"
   xmlns="http://www.w3.org/2000/svg"
   xmlns:sodipodi="http://sodipodi.sourceforge.net/DTD/sodipodi-0.dtd"
   xmlns:inkscape="http://www.inkscape.org/namespaces/inkscape"
   height="1408"
   viewBox="0 0 1408 1408"
   width="1408"
   version="1.1"
   id="svg827"
   sodipodi:docname="1608790_phone_icon.svg"
   inkscape:version="0.92.4 (5da689c313, 2019-01-14)">
  <metadata
     id="metadata833">
    <rdf:RDF>
      <cc:Work
         rdf:about="">
        <dc:format>image/svg+xml</dc:format>
        <dc:type
           rdf:resource="http://purl.org/dc/dcmitype/StillImage" />
      </cc:Work>
    </rdf:RDF>
  </metadata>
  <defs
     id="defs831" />
  <sodipodi:namedview
     pagecolor="#ffffff"
     bordercolor="#666666"
     borderopacity="1"
     objecttolerance="10"
     gridtolerance="10"
     guidetolerance="10"
     inkscape:pageopacity="0"
     inkscape:pageshadow="2"
     inkscape:window-width="1920"
     inkscape:window-height="1017"
     id="namedview829"
     showgrid="false"
     inkscape:zoom="0.47433036"
     inkscape:cx="704"
     inkscape:cy="640"
     inkscape:window-x="-8"
     inkscape:window-y="-8"
     inkscape:window-maximized="1"
     inkscape:current-layer="svg827" />
  <path
     d="m 1408,1112 q 0,27 -10,70.5 -10,43.5 -21,68.5 -21,50 -122,106 -94,51 -186,51 -27,0 -52.5,-3.5 Q 991,1401 959,1392 927,1383 911.5,1377.5 896,1372 856,1357 816,1342 807,1339 709,1304 632,1256 504,1177 367.5,1040.5 231,904 152,776 104,699 69,601 66,592 51,552 36,512 30.5,496.5 25,481 16,449 7,417 3.5,391.5 0,366 0,339 0,247 51,153 107,52 157,31 182,20 225.5,10 269,0 296,0 q 14,0 21,3 18,6 53,76 11,19 30,54 19,35 35,63.5 16,28.5 31,53.5 3,4 17.5,25 14.5,21 21.5,35.5 7,14.5 7,28.5 0,20 -28.5,50 -28.5,30 -62,55 -33.5,25 -62,53 -28.5,28 -28.5,46 0,9 5,22.5 5,13.5 8.5,20.5 3.5,7 14,24 10.5,17 11.5,19 76,137 174,235 98,98 235,174 2,1 19,11.5 17,10.5 24,14 7,3.5 20.5,8.5 13.5,5 22.5,5 18,0 46,-28.5 28,-28.5 53,-62 25,-33.5 55,-62 30,-28.5 50,-28.5 14,0 28.5,7 14.5,7 35.5,21.5 21,14.5 25,17.5 25,15 53.5,31 28.5,16 63.5,35 35,19 54,30 70,35 76,53 3,7 3,21 z"
     id="path825"
     inkscape:connector-curvature="0"
     style="fill:#222222;fill-opacity:1" />
</svg>
